<?xml version="1.0" encoding="utf-8"?>
<!-- Generator: Adobe Illustrator 24.1.3, SVG Export Plug-In . SVG Version: 6.00 Build 0)  -->
<svg version="1.1" id="Layer_1" xmlns="http://www.w3.org/2000/svg" xmlns:xlink="http://www.w3.org/1999/xlink" x="0px" y="0px"
	 viewBox="0 0 437.89 245.37" style="enable-background:new 0 0 437.89 245.37;" xml:space="preserve">
<style type="text/css">
	.st0{fill:#030303;}
	.st1{fill:#3A37FC;}
</style>
<g>
	<path class="st0" d="M211.14,136.73c1.05-1.71,1.45-3.37,1.97-4.97c2.62-7.98,5.21-15.96,7.8-23.95c0.87-2.66,2.54-4.29,5.47-4.37
		c2.26-0.06,4.52-0.1,6.79,0.04c2.78,0.17,4.3,1.81,5.1,4.28c1.31,4.01,2.58,8.03,3.87,12.04c1.68,5.23,3.36,10.46,5.07,15.68
		c0.11,0.33,0.06,0.92,0.6,0.88c0.48-0.03,0.47-0.56,0.59-0.93c2.82-9.08,5.63-18.17,8.47-27.24c0.46-1.46,1.03-2.89,2.39-3.83
		c0.99-0.68,2.12-0.86,3.26-0.91c2.46-0.11,4.92-0.17,7.38,0.02c3.98,0.31,4.62,2.72,3.66,5.72c-2.85,8.9-5.78,17.76-8.7,26.64
		c-2.39,7.29-4.81,14.58-7.21,21.88c-0.42,1.27-0.82,2.55-1.36,3.78c-0.79,1.77-2.08,2.89-3.99,3.07c-2.94,0.29-5.9,0.34-8.84,0.02
		c-2.55-0.27-3.84-2.01-4.54-4.29c-2.05-6.66-4.06-13.33-6.11-19.98c-0.89-2.9-1.71-5.84-3.06-8.58c-0.08-0.17-0.09-0.39-0.41-0.48
		c-0.4,0.6-0.57,1.32-0.78,2.01c-2.63,8.73-5.23,17.48-7.86,26.21c-0.23,0.75-0.54,1.47-0.85,2.19c-0.87,1.99-2.5,2.87-4.58,2.99
		c-2.46,0.14-4.92,0.15-7.38,0.04c-2.97-0.14-4.51-1.38-5.59-4.63c-2.42-7.3-4.77-14.61-7.16-21.92
		c-2.14-6.54-4.34-13.07-6.43-19.62c-1.05-3.27-2.26-6.48-3.1-9.81c-0.03-0.13-0.07-0.25-0.1-0.38c-0.55-3.02,0.42-4.45,3.46-4.79
		c2.61-0.29,5.24-0.18,7.86-0.08c3.01,0.12,4.57,1.85,5.4,4.55c2.49,8.13,5.01,16.25,7.52,24.37
		C210.16,133.76,210.62,135.11,211.14,136.73z"/>
	<path class="st1" d="M168.86,118.62c0,12.41,0,24.81,0,37.22c0,1.88-0.08,3.74-0.93,5.47c-0.82,1.67-2.21,2.67-4.02,3
		c-2.04,0.37-4.1,0.56-6.11-0.21c-0.69-0.26-1.24-0.71-1.72-1.26c-0.82-0.93-1.68-1.83-2.49-2.77c-0.54-0.62-1.13-0.71-1.82-0.27
		c-1.72,1.07-3.38,2.24-5.21,3.12c-6.17,2.97-12.57,3.61-19.11,1.64c-9.58-2.88-15.76-9.46-19.25-18.64
		c-3.02-7.95-2.88-15.98,0.11-23.93c1.89-5.03,4.75-9.46,8.9-12.93c6.18-5.17,13.3-7.23,21.32-6.18c4.72,0.62,8.9,2.49,12.73,5.23
		c0.53,0.38,0.91,0.2,0.94-0.5c0.06-1.21,0.09-2.43,0.09-3.64c0.03-7.45,0.05-14.9,0.08-22.35c0-1.32,0.12-2.62,0.42-3.9
		c0.6-2.61,2.13-3.92,4.79-4.11c2-0.14,4-0.14,6,0c3.17,0.22,5.18,2.56,5.21,6.22c0.05,6.5,0.04,13,0.04,19.5
		c0.01,6.43,0,12.87,0,19.3C168.84,118.62,168.85,118.62,168.86,118.62z M152.3,135.19c0.28-6.22-1.55-10.74-5.26-14.48
		c-5.39-5.44-14.26-5.33-19.51,0.64c-5.87,6.68-6.44,15.91-1.71,23.44c2.31,3.67,5.54,6.13,9.91,6.65
		c6.02,0.71,10.51-1.96,13.77-6.87C151.55,141.46,152.27,137.95,152.3,135.19z"/>
	<path class="st0" d="M340.92,134.24c0,8.17,0,16.35,0,24.52c0,1.3-0.28,2.53-1.06,3.61c-1.26,1.74-3.09,2.35-5.1,2.53
		c-1.67,0.15-3.34-0.11-5-0.31c-0.48-0.06-0.84-0.29-1.17-0.64c-1.17-1.27-2.4-2.5-3.53-3.8c-0.44-0.5-0.74-0.46-1.22-0.14
		c-2.06,1.37-4.07,2.82-6.37,3.8c-7.41,3.13-14.84,3.18-22.08-0.33c-9.3-4.5-14.77-12.14-16.94-22.11
		c-1.99-9.19-0.44-17.88,4.67-25.79c4.55-7.04,10.87-11.69,19.25-13.11c6.77-1.14,13.07,0.32,18.88,3.94
		c0.64,0.4,1.31,0.76,1.93,1.18c0.5,0.34,0.87,0.22,1.12-0.26c1.61-3.18,4.34-4.13,7.68-3.93c1.05,0.06,2.1,0.02,3.15,0.09
		c3.57,0.25,5.76,2.56,5.8,6.14c0.03,2.99,0,5.97,0,8.96C340.93,123.8,340.93,129.02,340.92,134.24
		C340.93,134.24,340.93,134.24,340.92,134.24z M324.05,135.19c-0.01-5.16-1.22-9.1-3.87-12.6c-4.68-6.2-13.13-7.18-19.09-2.26
		c-8.2,6.76-7.92,21.07-0.42,27.63c5.16,4.51,11.93,4.77,17.19,0.41C322.22,144.75,323.87,139.88,324.05,135.19z"/>
	<path class="st0" d="M352.59,110.82c0-6.73-0.01-13.45,0-20.18c0.01-3.41,0.04-6.82,0.07-10.23c0.01-1.25,0.1-2.48,0.56-3.67
		c0.79-2.03,2.25-3.16,4.4-3.37c2.52-0.24,5.05-0.23,7.56,0.08c2.24,0.27,4.05,2.2,4.32,4.55c0.08,0.68,0.11,1.37,0.11,2.06
		c0.03,14.21,0.06,28.42,0.06,42.62c0,5.22-0.08,10.43-0.08,15.65c0,3.24,0.83,6.27,2.55,9.04c1.07,1.71,2.63,2.97,3.97,4.44
		c2.06,2.27,2.16,3.53,0.22,5.9c-1.75,2.15-3.76,4.08-5.85,5.9c-1.77,1.54-3.53,1.56-5.46,0.21c-7.94-5.52-12-13.19-12.3-22.78
		c-0.27-8.66-0.14-17.32-0.14-25.99C352.58,113.64,352.59,112.23,352.59,110.82z"/>
	<path class="st0" d="M384.03,111.31c0-10.44,0.11-20.87-0.04-31.31c-0.03-2.28,0.55-4.32,2.46-5.8c0.78-0.6,1.67-1.02,2.6-1.08
		c2.45-0.16,4.92-0.37,7.35,0.17c2.51,0.56,4.11,2.44,4.48,4.99c0.16,1.11,0.14,2.23,0.14,3.34c0.01,15.26,0,30.52,0,45.79
		c0,4.1-0.11,8.2,0.01,12.3c0.12,4.09,1.69,7.6,4.81,10.35c0.96,0.85,1.81,1.8,2.48,2.9c0.84,1.36,0.72,2.69-0.16,3.95
		c-1.12,1.62-2.61,2.91-3.99,4.31c-0.8,0.81-1.64,1.59-2.51,2.32c-1.71,1.43-3.3,1.58-5.12,0.33c-5.39-3.68-9.37-8.46-11.32-14.79
		c-1.01-3.27-1.2-6.62-1.2-10C384.03,129.82,384.03,120.56,384.03,111.31z"/>
	<path class="st1" d="M80.19,134.46c0-7.91-0.01-15.82,0.01-23.73c0-2.06,0.23-4.07,1.97-5.54c0.86-0.73,1.85-1.14,2.94-1.23
		c2.13-0.16,4.26-0.21,6.39-0.03c2.79,0.24,4.34,1.56,4.96,4.3c0.25,1.12,0.35,2.27,0.35,3.42c0.01,15.13,0.01,30.26-0.01,45.39
		c0,0.82-0.07,1.64-0.22,2.44c-0.56,3.07-2.54,4.77-5.67,4.97c-2.07,0.13-4.13,0.24-6.17-0.23c-2.73-0.63-4.15-2.27-4.39-5.06
		c-0.11-1.21-0.15-2.42-0.15-3.64C80.17,148.51,80.18,141.48,80.19,134.46C80.18,134.46,80.18,134.46,80.19,134.46z"/>
	<path class="st1" d="M197.98,187.16c2.42-0.04,4.3,0.92,5.94,2.51c4.74,4.59,9.36,9.29,14.01,13.97c3.58,3.6,2.8,8.95-0.01,12.28
		c-2.8,3.32-9.84,4.21-13.38,0.65c-4.59-4.62-9.36-9.07-13.72-13.92c-2.4-2.68-3.12-5.88-1.9-9.33c1.19-3.33,3.69-5.21,7.09-5.95
		C196.69,187.22,197.37,187.14,197.98,187.16z"/>
	<path class="st1" d="M61.03,48.78c-0.03,4.01-2.35,7.44-6.17,8.85c-3.55,1.31-6.74,0.63-9.57-2.07
		c-4.74-4.52-9.33-9.19-13.89-13.89c-3.35-3.45-2.92-8.2-0.38-11.64c1.35-1.83,3.18-2.86,5.39-3.3c3.62-0.72,6.61,0.22,9.24,2.93
		c4.23,4.36,8.61,8.58,12.83,12.96C60.19,44.4,61.09,46.51,61.03,48.78z"/>
	<path class="st1" d="M210.58,26.5c6.25-0.07,9.68,4.35,9.76,9.51c0.04,2.47-1.12,4.46-2.82,6.16c-4.41,4.41-8.83,8.81-13.27,13.2
		c-2.99,2.95-7.25,3.67-10.74,1.84c-3.64-1.91-5.67-5.86-5.03-9.82c0.31-1.9,1.22-3.5,2.52-4.89c4.45-4.76,9.13-9.3,13.75-13.89
		C206.26,27.1,208.02,26.49,210.58,26.5z"/>
	<path class="st1" d="M38.26,218.86c-2.24-0.04-4.76-0.68-6.68-2.81c-3.49-3.89-3.44-9.09,0.21-12.81
		c4.38-4.47,8.82-8.88,13.29-13.27c3.19-3.13,7.5-3.71,11.28-1.47c3.6,2.13,5.36,5.83,4.43,10.13c-0.42,1.97-1.63,3.46-3.01,4.84
		c-4.4,4.43-8.78,8.87-13.21,13.26C42.99,218.3,40.99,218.95,38.26,218.86z"/>
	<path class="st1" d="M88.43,78.71c5.28,0.03,9.58,4.33,9.58,9.52c0,4.56-3.93,9.44-9.32,9.34c-5.81-0.11-9.74-3.94-9.69-9.57
		C79.05,82.79,83.22,78.68,88.43,78.71z"/>
</g>
</svg>
